<mxfile host="app.diagrams.net" agent="Mozilla/5.0 (Macintosh; Intel Mac OS X 10_15_7) AppleWebKit/537.36 (KHTML, like Gecko) Chrome/129.0.0.0 Safari/537.36" version="24.8.2">
  <diagram name="第 1 页" id="44G5FJ0Dd_ZAmVxYPmb3">
    <mxGraphModel dx="1841" dy="1014" grid="0" gridSize="10" guides="1" tooltips="1" connect="1" arrows="1" fold="1" page="1" pageScale="1" pageWidth="1654" pageHeight="2336" background="#FFF4C3" math="0" shadow="0">
      <root>
        <mxCell id="0" />
        <mxCell id="1" parent="0" />
        <mxCell id="hjDh6zOloIzDSTzbTl---1" value="如何使用" style="rounded=1;whiteSpace=wrap;html=1;shadow=0;glass=0;horizontal=1;" parent="1" vertex="1">
          <mxGeometry x="105" y="82" width="120" height="60" as="geometry" />
        </mxCell>
        <mxCell id="hjDh6zOloIzDSTzbTl---2" value="" style="shape=image;verticalLabelPosition=bottom;labelBackgroundColor=default;verticalAlign=top;aspect=fixed;imageAspect=0;image=data:image/png,iVBORw0KGgoAAAANSUhEUgAAAt4AAAFqCAYAAAAtJ12hAAAACXBIWXMAAAsTAAALEwEAmpwYAAARZklEQVR4nO3de7DXdZ3H8dc5kAIeYCFXLl5KMi8IXk7AWo1tNgFSbWrL2BajprKU1epMjC6yVEvNOqw26Xi/ZBmrEyOrokuubOpgqYPSqJwcBcULcoklF1sPApNyzv7ReCZCXU7g++exx+Ov8/v+Pp8f73P+es6Xz+/3a+rc9GBnAACAt1VzowcAAIA/B8IbAAAKCG8AACggvAEAoIDwBgCAAsIbAAAKCG8AACggvAEAoIDwBgCAAsIbAAAKCG8AACggvAEAoIDwBgCAAsIbAAAKCG8AACggvAEAoIDwBgCAAsIbAAAKCG8AACggvAEAoIDwBgCAAsIbAAAKCG8AACggvAEAoIDwBgCAAsIbAAAKCG8AACggvAEAoIDwBgCAAsIbAAAKCG8AACggvAEAoIDwBgCAAsIbAAAKCG8AACggvAEAoIDwBgCAAsIbAAAKCG8AACggvAEAoIDwBgCAAsIbAAAKCG8AACggvAEAoIDwBgCAAsIbAAAKCG8AACggvAEAoIDwBgCAAsIbAAAKCG8AACggvAEAoIDwBgCAAsIbAAAKCG8AACggvAEAoIDwBgCAAsIbAAAKCG8AACggvAEAoEDvRg+wq/57w8bcOG9R/uveX2ZZ29P5zYsb09HR0eix2AW9evXK0CF75+gjD8nx48fm1C9OSv+Wfo0eCwBglzR1bnqws9FD/Kn+afY1ueCiH+fTnzo+f/PZEzNmzJgMHTo0zc1u5Pdk27Zty9q1a/Pwww9nwW235KGHl2bWeadlxvRTGj0aAMCfrEeG96oX1ucLp8/OXi2D8y8XzMm4ceMaPRJvo3vvvTfnzzgv7x3UJ/N+/M8Z0H+vRo8EANBtPS68N/zmpRz3qbMzfsJncskllzR6HAqddtopee6ZJ7L4Py/1vxoAQI/T48L7syfPyNB9D861117X6FFogM997oQM6p9cf+WMRo8CANAtPeq24Y9vujPLn16bq666utGj0CBXXnlNbrl9ce762ZJGjwIA0C09Krwvu/rWzJgxM7169Wr0KDTI0KFDc955/5jLrr610aMAAHRLjzlq8ljb0zl2wlfz8svtaWpqavQ4NNCvf/3rDB8+POufXZgh+wxu9DgAADulx9zxfmBJW477+MdFNxk2bFg+9KGj8sCStkaPAgCw03pMeD/z7NoccuhhjR6Dd4hDDjk0zzy7ttFjAADstB4T3q9s3pqWlpZGj8E7REtL/7yyeWujxwAA2Gk9JrwBAKAnE94AAFBAeAMAQAHhDQAABYQ3AAAUEN4AAFBAeAMAQAHhDQAABYQ3AAAUEN4AAFBAeAMAQAHhDQAABYQ3AAAUEN4AAFBAeAMAQAHhDQAABXo3eoB3mwcffDBnnXVWli1b1q19Z511VlpbW3P88ce/6Zrm5ubsu+++XY9vuOGG3H///fnBD37Qde3888/P0KFDc8455+yw/+67786aNWv+31kmTpyYYcOGdWt+AADemvDezdra2vKBD3xgu2szZszIY4891vV4wIABufnmm7seb9y4MVdffXW++93v5vDDD9/hNdvb25MkI0aMyDPPPNN1/corr8znP//5TJ8+PZ2dnUmSe+65J/369cuqVau61s2aNSuDBw/O5ZdfnnXr1uXQQw9NkixfvjyrVq3KxIkTu9YuWLAgCxcuFN4AALuZ8N5NHn/88dxyyy2566678rvf/S6zZ89OkkydOjVLly7Nxz72sYwZMyYbNmzY4W703LlzM378+MyaNSuzZs3a4bXb2toyfvz47aL7kUceydKlS3PnnXfmJz/5SbZt25Yk6devXwYNGpQDDjiga22vXr26fj7nnHMyZcqUJL+/Y75gwYLMnTu36/k3Cn8AAHad8N5NOjs709nZmSVLluRLX/pSOjs78/3vfz8nnXRSkmTcuHGZNGlSXnjhhe32rVu3Lt/61rdyySWXpKOjI4888sh2z//x3fMk6ejoyPTp03PKKadk7733Tmtra5588skkSZ8+fdLc3JyWlpYkyciRIzNw4MCuvc8991weffTRJMmqVauycePGrsdJ8vLLL++GvwYAAH9MeO8mo0ePzoABAzJ79uxcdtll6dOnT2bPnp2DDjroTfd0dnZm2rRpaW9vz5577pmtW7dm7Nix+ehHP5rm5uY89thjufbaazNy5Mjt9l1xxRVZvHhxvvKVryRJ5s2blxUrVqS1tTUbN27Mq6++mpUrV2bp0qUZNWpUPvKRj3Ttveaaa3LbbbclSdasWZMtW7Zk6tSpXc/vzBlwAAC6T3jvRnfffXcmTpyYlpaWLF++PPvtt1/69ev3puvvv//+PPnkkzn22GO3u7548eL07t07J5988g57Nm7cmLPPPnu7c9lJMnny5EybNi1btmzJkCFDMnPmzFx11VVZvnz5duvmzJmzw1GTBQsWdD3vqAkAwNtDeO9GP/3pTzNp0qQkv3+T4oQJE95y/ahRo3LHHXd0nQffGYMGDcr8+fOzevXqPPXUU13Xb7311qxZsyaLFy/OwIEDs3Xr1jzwwAMZNWrUdvs7Ojry2muvJUm2bdu23WMAAN4+wns3GjFiRC644IIcdthhufjii3P77be/5fpBgwZl0KBBO1xfuXJlevfund/+9rc7PNfU1JTJkyfn4osv7rr2iU98Ivvuu29aWlqyadOmjBw5Mvvss09OOumkHHnkkV3rXnzxxZx66qk59dRTt3vN97znPd39VQEA6CbhvRt973vfy4c//OFMnDgx/fv3z5gxY7q1v6mpKQcffHBOOOGErmuvv0nyrfziF7/Io48+mgULFmTmzJk588wz88lPfnKHdW1tbXnooYcybty4JMmPfvSj3H777Y6aAAAUEN5vk4EDB+bEE0/MTTfdlCRZv359nn/++axdu/ZN9/Tt2zcrVqzY4XpbW9tb/lsXXnhhTj/99LS2tqa9vT1jx47dYc2qVavS3t6e0aNHd11ramra2V8HAIBd5Cvjd6MbbrghkydPzp133pm2tra88sorueKKK5IkZ5xxRo444oiuM+Dd8foX6LyZ3r1757TTTsuzzz6bJJk+fXqWLFnS9dneSXLppZdm4sSJ6du37xu+xiuvvJIXX3wxq1evzh577NHtGQEAeGvueO8mq1evzumnn55FixZ1valy0aJFaW5uzpYtWzJnzpyMHTs2GzZsyNe//vWdes0pU6Zk3bp1eeKJJ3Z4k+TrrrvuunznO9/JHnvskfnz56e1tTXXX399JkyYkPb29hxxxBH54Q9/mIULF+bGG2/cbm///v2z//77J/n9+fQNGzbkmGOOydFHH70LfwkAAN5IU+emBzsbPcTO+PLZF2b4AUfl29/+dqNHeVPr16/P0KFDu71v6dKlGTJkyHbfNpkky5Yty0svvZTevXuntbV1u48mfPrpp7Np06YMHjw4a9asybhx43Z4k+S6deuyYsWKjBkzJp2dnRkwYMCbzvD63fE//JbLd7Ivf3lahu3dkX+eeWajRwEA2CnueO9Gf0p0J3nDM9lJtvtEkj/2wQ9+sOvn973vfW+4Zvjw4Rk+fPhOzdBTghsAoKdyxhsAAAoIbwAAKCC8AQCggPAGAIACwhsAAAoIbwAAKCC8AQCggPAGAIACwhsAAAoIbwAAKCC8AQCggPAGAIACwhsAAAoIbwAAKCC8AQCggPAGAIACPSa8+/bZM5s3b270GLxDbN68OX377NnoMQAAdlqPCe8D3z8sK1c+1egxeIdY+fRTOfD9wxo9BgDATusx4X3M2MNz3333NXoM3gFeeumlLHloaY4ZO6rRowAA7LQeE95/Nfbw7POXgzNv3rxGj0KDzZ07N8f99dgcsP+QRo8CALDTekx4J8nXpp2Yiy6c0+gxaKDNmzfnoov+NV/9+xMbPQoAQLf0sPD+27Ts1Tvnnntuo0ehQb72ta/mmLEjM/nE4xo9CgBAt/Ru9ADddd3l5+bjx/9DBgwYkG9+85uNHodC3/jGN7L04Qdy312XNXoUAIBu61F3vJPk4IMOyMJ/vzD/Nvf6fPGLf5fnn3++0SPxNnv88cfzmU9Pyv0//1n+4+Y5ee/ggY0eCQCg23pceCdJ61GHZOnPr8tee27NgQcemKlTz8gdd9yRdevWpaOjo9HjsYu2bduWF154IfPnz8+UKV/I6NGjc/CIv8jD912bA98/vNHjAQD8SZo6Nz3Y2eghdsWyX63MjfPuyqJ7fplfPe5zvt8tmpqa0nrUYZk0YVxOm/KpHDRiv0aPBACwS3p8eP+hV199Lf+z8X/T0fGu+ZX+LDU3N2XIPoPT1NTU6FEAAHabd1V4AwDAO1WPPOMNAAA9jfAGAIACwhsAAAoIbwAAKCC8AQCggPAGAIACwhsAAAoIbwAAKCC8AQCggPAGAIACwhsAAAoIbwAAKCC8AQCggPAGAIACwhsAAAoIbwAAKCC8AQCggPAGAIACwhsAAAoIbwAAKCC8AQCggPAGAIACwhsAAAoIbwAAKCC8AQCggPAGAIACwhsAAAoIbwAAKCC8AQCggPAGAIACwhsAAAoIbwAAKCC8AQCggPAGAIACwhsAAAoIbwAAKCC8AQCggPAGAIACwhsAAAoIbwAAKCC8AQCggPAGAIACwhsAAAoIbwAAKCC8AQCggPAGAIACwhsAAAoIbwAAKCC8AQCggPAGAIACwhsAAAoIbwAAKCC8AQCggPAGAIACwhsAAAoIbwAAKCC8AQCggPAGAIACwhsAAAoIbwAAKCC8AQCggPAGAIACwhsAAAoIbwAAKCC8AQCggPAGAIACwhsAAAoIbwAAKCC8AQCggPAGAIACwhsAAAoIbwAAKCC8AQCggPAGAIACwhsAAAoIbwAAKCC8AQCggPAGAIACwhsAAAoIbwAAKCC8AQCggPAGAIACwhsAAAoIbwAAKCC8AQCggPAGAIACwhsAAAoIbwAAKCC8AQCggPAGAIACwhsAAAoIbwAAKCC8AQCggPAGAIACwhsAAAoIbwAAKCC8AQCggPAGAIACwhsAAAoIbwAAKCC8AQCggPAGAIACwhsAAAoIbwAAKCC8AQCggPAGAIACwhsAAAoIbwAAKCC8AQCggPAGAIACwhsAAAoIbwAAKCC8AQCggPAGAIACwhsAAAoIbwAAKCC8AQCggPAGAIACwhsAAAoIbwAAKCC8AQCggPAGAIACwhsAAAoIbwAAKCC8AQCggPAGAIACwhsAAAoIbwAAKCC8AQCggPAGAIACwhsAAAoIbwAAKCC8AQCggPAGAIACwhsAAAoIbwAAKCC8AQCggPAGAIACwhsAAAoIbwAAKCC8AQCggPAGAIACwhsAAAoIbwAAKCC8AQCggPAGAIACwhsAAAoIbwAAKCC8AQCggPAGAIACwhsAAAoIbwAAKCC8AQCggPAGAIACwhsAAAoIbwAAKCC8AQCggPAGAIACwhsAAAoIbwAAKCC8AQCggPAGAIACwhsAAAoIbwAAKCC8AQCggPAGAIACwhsAAAoIbwAAKCC8AQCggPAGAIACwhsAAAoIbwAAKCC8AQCggPAGAIACwhsAAAoIbwAAKCC8AQCggPAGAIACwhsAAAoIbwAAKCC8AQCggPAGAIACwhsAAAoIbwAAKCC8AQCggPAGAIACwhsAAAoIbwAAKCC8AQCggPAGAIACwhsAAAoIbwAAKCC8AQCggPAGAIACwhsAAAoIbwAAKCC8AQCggPAGAIACwhsAAAoIbwAAKCC8AQCggPAGAIACwhsAAAoIbwAAKCC8AQCggPAGAIACwhsAAAoIbwAAKCC8AQCggPAGAIACwhsAAAoIbwAAKCC8AQCggPAGAIACwhsAAAoIbwAAKCC8AQCggPAGAIACwhsAAAoIbwAAKCC8AQCggPAGAIACwhsAAAoIbwAAKCC8AQCggPAGAIACwhsAAAoIbwAAKCC8AQCggPAGAIACwhsAAAoIbwAAKPB/hBEo5jsO7rcAAAAASUVORK5CYII=;" parent="1" vertex="1">
          <mxGeometry x="380" y="152" width="592.06" height="292" as="geometry" />
        </mxCell>
      </root>
    </mxGraphModel>
  </diagram>
</mxfile>
